<?xml version="1.0" encoding="UTF-8"?>
<svg xmlns="http://www.w3.org/2000/svg" viewBox="0 0 218.09 46.33">
  <defs>
    <style>
      .cls-1 {
        fill: #fff;
        fill-rule: evenodd;
      }
    </style>
  </defs>
  <g id="Layer_1" data-name="Layer 1"/>
  <g id="Layer_2" data-name="Layer 2">
    <g id="content">
      <g id="Layer_7" data-name="Layer 7">
        <path class="cls-1" d="M167.34,27.91v-10.3c1.96-5.21,6.81-8.92,12.45-8.92,6.35,0,11.69,4.69,13.04,10.95v.05l.02,.05v.07c.03,.09,.05,.17,.06,.26h0v.06l.02,.05h0c0,.07,.02,.12,.03,.18,0,.05,.02,.11,.03,.16v.05s.02,.1,.03,.15c0,.07,.02,.14,.03,.21,0,.04,0,.08,.01,.12,0,.08,.02,.16,.03,.24v.13c.02,.08,.03,.17,.03,.25,0,.02,0,.05,0,.07,0,.09,.01,.18,.02,.27,0,.04,0,.07,0,.11,0,.1,0,.19,.01,.29h0v.02h0c0,.12,0,.24,0,.36,0,.29,0,.58-.03,.87h-17.63v-4.03h13.35c-1.27-4-4.86-6.89-9.07-6.89-5.26,0-9.56,4.52-9.56,10.05s4.3,10.05,9.56,10.05c3.76,0,7.03-2.31,8.59-5.65h4.12c-1.76,5.6-6.8,9.66-12.7,9.66s-10.49-3.71-12.45-8.92h0Zm0-15.14h.93v-3.78h-.93v3.78h0Zm41.08-4.07c3.56,0,6.81,1.48,9.21,3.88l-2.86,2.69c-1.69-1.59-3.92-2.55-6.35-2.55-5.26,0-9.56,4.52-9.56,10.05s4.3,10.05,9.56,10.05c2.67,0,5.09-1.16,6.82-3.03l2.85,2.68c-2.44,2.69-5.87,4.36-9.67,4.36-7.37,0-13.38-6.32-13.38-14.07s6.01-14.07,13.38-14.07Zm-41.08,.29v3.78h-5.63v12.94c.06,2.18,.95,4.1,2.01,5.68l-1.85,4.4c-2.6-2.74-4.27-6.48-4.35-10.06V12.77h-3.27v-3.78h3.27V2.73l4.19-2.73V8.99h5.63Zm0,8.63c-.6,1.6-.93,3.33-.93,5.15s.33,3.55,.93,5.15v-10.3h0Zm-13.09,6.01h.47c.02-.29,.03-.57,.03-.87,0-.12,0-.23,0-.35h0v-.02c0-.1,0-.19-.01-.29,0-.04,0-.07,0-.11,0-.09-.01-.18-.02-.27v-.07c-.01-.08-.02-.17-.03-.25v-.13c-.02-.08-.03-.16-.04-.24,0-.04,0-.08-.01-.12,0-.07-.02-.14-.03-.21,0-.05-.01-.1-.02-.15v-.05c-.02-.05-.02-.11-.03-.16,0-.05-.02-.11-.03-.16h0v-.06l-.02-.05h0c-.02-.1-.03-.18-.05-.27v-.07l-.02-.05v-.05c-.06-.23-.12-.46-.18-.69v4.67Zm0-14.64v3.78h-.5v-3.78h.5Zm0,9.98c-1.58-5.91-6.76-10.27-12.88-10.27-5.66,0-10.52,3.73-12.46,8.97v10.2c1.95,5.24,6.81,8.97,12.46,8.97s10.94-4.06,12.7-9.66h-4.12c-1.56,3.34-4.82,5.65-8.59,5.65-5.26,0-9.56-4.52-9.56-10.05s4.29-10.05,9.56-10.05c4.21,0,7.81,2.89,9.07,6.89h-13.35v4.03h17.16v-4.67h0Zm-25.34-5.76v-4.39c.3-.04,.61-.07,.91-.09l-.39,4.4c-.18,.02-.35,.05-.52,.08Zm0-4.39v4.39c-4.18,.77-7.41,4.52-7.63,9.08v.99c0,.17,.02,.34,.04,.51h-.04v13.06h-4.19V9.47h4.19v3.9c1.98-2.39,4.65-4.14,7.63-4.57h0Zm0,8.86c-.59,1.58-.91,3.3-.91,5.1s.32,3.52,.91,5.1v-10.2h0Zm-27.16,19.17v-4.02c5.25,0,9.53-4.52,9.53-10.05s-4.28-10.04-9.53-10.05v-4.02c7.35,0,13.34,6.32,13.34,14.07s-5.99,14.06-13.34,14.07ZM27.51,1.2c7.06,1.89,12.77,7.34,15.24,14.39-2.78-5.83-8.57-9.85-15.24-9.85V1.2h0Zm74.24,7.5v4.02h-.01c-5.01,0-9.13,4.1-9.51,9.27v1.55c.38,5.18,4.51,9.28,9.51,9.28h.01v4.02h-.01c-3.72,0-7.09-1.62-9.51-4.21v10.62l-4.19,2.4V9.47h4.19v3.44c2.43-2.6,5.8-4.21,9.51-4.21h.01ZM27.51,45.61v-4.54c6.67,0,12.46-4.02,15.24-9.85-2.47,7.05-8.18,12.5-15.24,14.4h0Zm0-9.48c4.71,0,8.81-2.83,10.84-6.94h4.45c.51-1.45,.84-2.99,.95-4.58H27.51v11.52h0Zm0-16.35h11.67c-1.5-5.26-6.17-9.11-11.67-9.11v9.11h0Zm19.69-10.31h4.19v3.04c1.57-2.09,4.19-3.47,7.16-3.47,4.17,0,7.66,2.72,8.49,6.33,.86-3.63,4.8-6.33,8.99-6.33,4.78,0,10.09,4.45,10.09,10.92,0,.09,0,.18,0,.26v16.61h-4.19V20.36c-.41-3.93-3.19-6.98-6.54-6.98-3.63,0-6.74,3.58-6.74,7.98v.06h0v15.43h-4.19V20.36c-.41-3.93-3.19-6.98-6.54-6.98s-5.99,2.9-6.5,6.69v16.77h-4.19V9.47ZM22.02,.48c1.89,0,3.73,.25,5.49,.72V5.74h0c-8.17,0-15.03,6.04-16.64,14.04H.25C1.92,8.86,11.06,.48,22.02,.48h0Zm5.49,10.2h0c-5.5,0-10.17,3.85-11.67,9.11h11.67V10.68h0Zm0,13.93v11.52h0c-6.32,0-11.54-5.07-12.12-11.52h12.12Zm0,16.46h0c-8.97,0-16.36-7.29-16.96-16.46H0c.61,12.07,10.26,21.72,22.02,21.72,1.89,0,3.73-.25,5.49-.72v-4.54Z"/>
      </g>
    </g>
  </g>
</svg>