<?xml version="1.0" encoding="UTF-8"?>
<svg xmlns="http://www.w3.org/2000/svg" viewBox="0 0 399 120.6">
  <defs>
    <style>
      .cls-1 {
        fill: none;
      }

      .cls-2 {
        fill: #00bed7;
        fill-rule: evenodd;
      }
    </style>
  </defs>
  <g id="Layer_1" data-name="Layer 1"/>
  <g id="Layer_2" data-name="Layer 2">
    <g id="content">
      <path class="cls-2" d="M166.9,12.86c-3.84,3.85-6.3,8.81-10.54,12.35-1.22,1.01-2.54,1.93-3.84,3.25,1.07-7.6,6.14-14.6,14.38-15.6h0Zm65.21,0c3.84,3.85,6.3,8.81,10.54,12.35,1.22,1.01,2.54,1.93,3.84,3.25-1.07-7.6-6.14-14.6-14.38-15.6h0Zm-75.86,5.06c-11.38,2.99-9.52,14.49-9.26,23,4.03-7.38,13.97-9.18,14.11-18.79-2.09,5.17-9.39,6.25-11.28,10.79l-.18-.04c1.99-4.59,.91-11.93,6.61-14.96h0Zm86.52,0c5.69,3.03,4.62,10.37,6.61,14.96l-.18,.04c-1.89-4.54-9.19-5.62-11.28-10.79,.14,9.6,10.08,11.4,14.11,18.79,.26-8.51,2.12-20.01-9.26-23h0Zm-96.46,8.34c-11.18,10.77-1.55,24.9-1.15,29.22,1.41-8.34,9.54-12.92,10.75-22.11-1.77,4.06-8.52,5.36-10.29,13.47-.18,.06-.18-.11-.23-.16,1.14-9.3-2.14-14.83,.92-20.43h0Zm106.4,0c3.06,5.6-.22,11.12,.92,20.43-.05,.05-.05,.22-.23,.16-1.77-8.11-8.52-9.41-10.29-13.47,1.22,9.19,9.35,13.77,10.75,22.11,.39-4.32,10.03-18.45-1.15-29.22h0Zm-112.83,15.53c-2.58,5.37-2.25,10.95-.47,16.52,.56,2.89,6.61,10.34,8.65,12.81-.46-6.16,1.21-9.66,2.38-13.8,1.66-5.86,3.17-10.54,1.58-12.68-.39,1.43-.85,2.85-1.63,4.13-3.22,4.67-5.04,7.69-4.57,13.98-.03,.07-.1,.15-.2,.11-1.4-8.15-6.95-15.14-5.74-21.07h0Zm119.25,0c1.21,5.93-4.34,12.92-5.74,21.07-.1,.04-.17-.05-.2-.11,.47-6.29-1.35-9.31-4.57-13.98-.79-1.27-1.24-2.69-1.63-4.13-1.59,2.14-.07,6.82,1.58,12.68,1.17,4.14,2.85,7.65,2.38,13.8,2.04-2.47,8.09-9.92,8.65-12.81,1.78-5.56,2.11-11.15-.47-16.52h0Zm-120.79,18.04c-1.87,11.59,6.63,19.11,18.86,25.55-4.87-10.42-1.35-17.3-5.61-26.67,.14,6.13-3.91,11.61-.39,18.97,0,.06-.04,.15-.15,.11-3.57-6.16-11.94-11.26-12.72-17.96h0Zm122.32,0c-.77,6.7-9.15,11.8-12.72,17.96-.1,.04-.14-.05-.15-.11,3.52-7.36-.52-12.84-.39-18.97-4.26,9.38-.74,16.25-5.61,26.67,12.23-6.44,20.73-13.96,18.86-25.55h0Zm-118.51,16.59c1.18,6.28,5.38,11.86,11.32,14.76,5.58,2.73,12.36,2.86,15.54,4.15-4.23-3.56-5.09-8.47-6.64-12.8-1.65-4.61-3.51-8.59-6.8-11.76,1.82,11.16,2.6,15.31,6.51,19.94-4.09-3.91-8.41-4.79-12.8-7.36-3.46-2.03-6.1-4.51-7.13-6.93h0Zm114.71,0c-1.03,2.42-3.67,4.89-7.13,6.93-4.39,2.57-8.71,3.46-12.8,7.36,3.91-4.63,4.7-8.78,6.52-19.94-3.29,3.17-5.15,7.15-6.8,11.76-1.55,4.33-2.41,9.24-6.64,12.8,3.18-1.3,9.96-1.42,15.54-4.15,5.94-2.9,10.14-8.48,11.32-14.76Zm-105.74,14.69c2.43,4.91,5.88,7.91,10.77,9.48,9.8,2.55,17.25-1.91,23.32-2.68-11.53-1.92-14.88-12.01-21.38-14.52,2.66,5.09,4.35,10.76,10.75,13.65-5.98-1.52-16.98,.82-23.46-5.93h0Zm96.78,0c-6.48,6.75-17.49,4.42-23.46,5.93,6.4-2.89,8.09-8.55,10.75-13.65-6.49,2.51-9.84,12.59-21.38,14.52,6.08,.76,13.52,5.23,23.32,2.68,4.89-1.56,8.34-4.57,10.77-9.48h0Zm-17.14,15.85c2.92-1.05,4.75-2.57,6.82-5.21-6.61,3.49-12.43,2.29-18.81-.5-6.05-3.29-12.52-4.89-19.21-2.63-8.79-2.85-15.2,.73-21.53,3.53-4.7,1.88-12.52,2.44-16.66-.47,1.93,2.73,4.94,4.41,7.76,5.53,5.29,2.12,12.16,0,16.52-3.09,3.51-2.37,6.2-5.48,11.01-4.35-5.02,2.38-9.22,5.07-13.38,9.33l2.77,2.45c2.77-3.51,9.39-9.17,13.54-10.85,4.99,2.48,9.48,6.39,13.5,10.82,.86-.7,1.92-1.58,2.63-2.39-4.2-4.11-8.32-7.14-13.23-9.47,3.16-.88,7.55,2.19,9.86,3.7,5.07,3.92,11.96,6.03,18.43,3.57h0Zm10.54-55.45c0,23.43-19.06,42.5-42.5,42.5s-42.5-19.06-42.5-42.5,19.06-42.5,42.5-42.5,42.5,19.06,42.5,42.5Zm-12.68-29.38l-5.41,5.41c6,6.11,9.73,14.45,9.81,23.66h7.66c-.08-11.31-4.67-21.57-12.06-29.07Zm-.44-.44c-7.5-7.39-17.75-11.98-29.07-12.06v7.66c9.2,.08,17.55,3.81,23.66,9.81l5.41-5.41Zm-29.69,30.56l-5.06,5.06c1.31,1.34,3.09,2.19,5.06,2.28v-7.33Zm.62,7.33c1.97-.08,3.75-.94,5.06-2.28l-5.06-5.06v7.33Zm0-8.83l4.82-4.82c-1.28-1.21-2.97-1.97-4.82-2.04v6.86Zm-.62-6.86c-1.85,.08-3.53,.84-4.82,2.04l4.82,4.82v-6.86Zm0-8.4c-4.18,.08-7.98,1.77-10.79,4.48l5.53,5.53c1.4-1.32,3.23-2.15,5.26-2.22v-7.78Zm-5.25,10.89c-1.16,1.28-1.91,2.96-2.04,4.81h6.85l-4.81-4.81Zm-2.05,5.43c.02,1.92,.71,3.67,1.84,5.03l5.03-5.03h-6.87Zm-3.48,11.23c2.81,2.71,6.61,4.4,10.79,4.48v-7.31c-2.14-.08-4.07-1-5.49-2.46l-5.3,5.3Zm11.41,4.48c4.18-.08,7.98-1.77,10.79-4.48l-5.3-5.3c-1.42,1.45-3.35,2.38-5.49,2.46v7.31Zm5.47-10.67c1.13-1.36,1.82-3.11,1.84-5.03h-6.87l5.03,5.03Zm1.82-5.65c-.12-1.85-.87-3.53-2.04-4.81l-4.81,4.81h6.85Zm3.5-11.23c-2.81-2.71-6.61-4.4-10.79-4.48v7.78c2.02,.08,3.86,.91,5.26,2.22l5.53-5.53Zm-11.41-13.54c-6.68,.08-12.74,2.79-17.19,7.13l5.97,5.97c2.92-2.82,6.87-4.58,11.23-4.66v-8.44Zm-11.23,13.98c-2.71,2.81-4.4,6.61-4.48,10.79h7.79c.13-2.03,.95-3.86,2.22-5.25l-5.54-5.54Zm-4.48,11.41c.08,4.18,1.77,7.98,4.48,10.79l5.32-5.32c-1.24-1.47-2-3.38-2.02-5.47h-7.78Zm-1.49,17.63c4.45,4.35,10.51,7.05,17.19,7.13v-8.44c-4.35-.08-8.3-1.84-11.23-4.66l-5.97,5.97Zm17.81,7.13c6.68-.08,12.74-2.79,17.19-7.13l-5.97-5.97c-2.92,2.82-6.87,4.58-11.23,4.66v8.44Zm11.23-13.98c2.71-2.81,4.4-6.61,4.48-10.79h-7.78c-.02,2.09-.78,4-2.02,5.47l5.32,5.32Zm4.48-11.41c-.08-4.18-1.77-7.98-4.48-10.79l-5.54,5.54c1.27,1.39,2.09,3.23,2.22,5.25h7.79Zm1.49-17.63c-4.45-4.35-10.51-7.05-17.19-7.13v8.44c4.35,.08,8.3,1.84,11.23,4.66l5.97-5.97Zm-17.81-15.66c-9.03,.08-17.22,3.74-23.22,9.63l5.59,5.59c4.57-4.46,10.78-7.23,17.63-7.32v-7.9Zm-17.63,16.09c-4.35,4.45-7.05,10.51-7.13,17.19h8.44c.08-4.35,1.84-8.3,4.66-11.23l-5.97-5.97Zm-7.13,17.81c.08,6.68,2.79,12.74,7.13,17.19l5.97-5.97c-2.82-2.92-4.58-6.87-4.66-11.23h-8.44Zm1.55,23.66c6,5.89,14.19,9.55,23.22,9.63v-7.9c-6.85-.08-13.07-2.86-17.63-7.32l-5.59,5.59Zm23.84,9.63c9.03-.08,17.22-3.74,23.22-9.63l-5.59-5.59c-4.57,4.46-10.78,7.23-17.63,7.32v7.9Zm17.63-16.09c4.35-4.45,7.05-10.51,7.13-17.19h-8.45c-.08,4.35-1.84,8.3-4.66,11.23l5.97,5.97Zm7.13-17.81c-.08-6.68-2.79-12.74-7.13-17.19l-5.97,5.97c2.82,2.92,4.58,6.87,4.66,11.23h8.45Zm-1.55-23.66c-6-5.89-14.19-9.55-23.22-9.63v7.9c6.85,.08,13.07,2.86,17.63,7.32l5.59-5.59Zm-23.84-17.91c-11.31,.08-21.57,4.67-29.07,12.06l5.41,5.41c6.11-6,14.45-9.73,23.66-9.81v-7.66Zm-23.66,18.35c-5.89,6-9.55,14.19-9.63,23.22h7.9c.08-6.85,2.86-13.07,7.32-17.63l-5.59-5.59Zm-9.63,23.84c.08,9.03,3.74,17.22,9.63,23.22l5.59-5.59c-4.46-4.57-7.23-10.78-7.32-17.63h-7.9Zm4.22,29.5c7.5,7.39,17.75,11.98,29.07,12.06v-7.66c-9.2-.08-17.55-3.81-23.66-9.81l-5.41,5.41Zm29.69,12.06c11.31-.08,21.57-4.67,29.07-12.06l-5.41-5.41c-6.11,6-14.45,9.73-23.66,9.81v7.66Zm23.66-18.35c5.89-6,9.55-14.19,9.63-23.22h-7.9c-.08,6.85-2.86,13.07-7.32,17.63l5.59,5.59Zm9.63-23.84c-.08-9.03-3.74-17.22-9.63-23.22l-5.59,5.59c4.46,4.57,7.23,10.78,7.32,17.63h7.9Zm-75.47,0h7.66c.08-9.2,3.81-17.55,9.81-23.66l-5.41-5.41c-7.39,7.5-11.98,17.75-12.06,29.07Zm12.06,29.69l5.41-5.41c-6-6.11-9.73-14.45-9.81-23.66h-7.66c.08,11.31,4.67,21.57,12.06,29.07Zm71.69-29.07h-7.66c-.08,9.2-3.81,17.55-9.81,23.66l5.41,5.41c7.39-7.5,11.98-17.75,12.06-29.07Zm-77.35,8.69l.1-.07,.18-.1v-.18l.14-.21,.18-.16,.34-.03,.4,.03h.41l.06,.18,.18,.13,.07,.25-.04,.18h.28l.12,.23,.34-.02,.56,.04s.3,0,.39,0c.09,0,.27,.07,.27,.07l.13,.2h.6l.39-.04v-.21l.15-.17,.2-.24,.12-.2,.05-.5v-1.02l-.08-.36s-.05-.06-.06-.09c0-.03-.03-.11-.03-.11l.04-.15,.17-.08s-.04-.15-.05-.18c-.01-.03,.09-.11,.09-.11l.09-.13,.06-.24,.22-.22,.18-.22s.24-.29,.25-.35c0-.06,.35-.28,.35-.28l.28-.19,.31-.2,.19-.29,.26-.14,.23-.25,.25-.24,.35-.08,.21-.08,.44,.14,.18,.21,.43,.22,.28,.2,.25,.18h.34l.09,.18,.2,.15,.26,.2s.09,.05,.16,.05,.24,.08,.24,.08l.16,.17,.16,.19,.23,.1h.17l.15-.16,.24-.12,.14-.14s-.03-.25-.03-.3,.04-.31,.04-.31l.02-.19-.12-.18-.11-.09v-.21l-.02-.21,.03-.21,.11-.14s-.04-.25,.04-.35c.08-.1,.08-.39,.08-.39l-.04-.39,.29-.37,.31-.27,.24-.16,.24-.24,.33-.29,.27-.35,.06-.51,.04-.45-.24-.25-.04-.45-.24-.37-.06-.45,.02-.74s-.02-.35-.04-.45c-.02-.1,.04-.33,.04-.33,0,0,.22-.43,.22-.53s.25-.35,.25-.35l.27-.37,.22-.33,.14-.39,.22-.24,.53-.59,.33-.02,.25-.14h.31l.29,.04,.25-.2,.02-.37-.02-.31,.27-.31,.31-.27,.33-.08,.33,.02,.35-.1,.35-.57,.29-.33,.2-.31,.55-.47,.33-.1,.35-.14,.29-.22,1.1-1.12,.41-.06h.55l.2,.2,.61,.12,.25,.16,.45,.08,.33,.02,1.12,.32,.21,.13,.12,.11s.31,.09,.33,.14c.02,.05,.12,.1,.12,.1l.15,.14,.1,.23v.25l-.04,.21,.02,.17,.15,.22,.22,.08,.13-.19,.16-.13,.38-.09,.21,.03,.26,.16,.08,.24,.33-.02h.37l.29-.14,.31,.24h.91l.14-.22,.31-.22,.18-.14,.06-.21-.02-.32v-.22l.15-.21-.07-.16,.16-.29,.21-.18,.11-.16,.08-.16,.18-.08h.16l.1,.14v.18l.13,.11,.04,.19,.14,.2h.4l.11-.14,.23-.14h.19l1.12-.04,.24-.03,.12-.12,.31-.05s.33,0,.43,0,.2,0,.2,0l.08-.14h.27l.19,.09,.2-.07,.22,.12,.16,.16,.18-.03,.18,.14,.18,.18,.19,.14,.11,.15,.36-.03,.16-.09,.2-.08,.13-.14,.21-.16,.16-.06,.18-.16,.16-.14,.06-.11,.14-.16,.17-.08,.07-.15,.19-.17v-.12l.22-.06,.21-.1,.15,.05,.06,.2,.15,.16,.15,.19v.28l-.04,.27,.1,.15-.07,.23-.03,.22-.14,.13-.1,.09-.06,.28-.09,.12-.15,.16s-.12,.1-.14,.15c-.02,.05-.07,.18-.07,.18l-.13,.13-.19,.1-.14,.13h-.16l-.09,.13-.1,.05-.16,.11s-.14,0-.19,0-.05,.11-.05,.11l-.06,.11-.16,.05-.09-.1-.1,.13h-.21l-.04,.18v.2l.08,.15h.18l.09-.15h.17l.08-.17h.21l.14-.03,.11-.11h.18l.12,.14,.24,.12,.12,.11,.16,.16,.16,.15,.08,.15,.18,.13h.53l.2-.02,.16-.16,.13-.16,.04-.2,.2-.13,.08-.15,.17-.21,.18-.06,.14-.13,.16-.16,.21-.1,.13-.17,.19-.19,.21-.06,.19-.11,.09-.19,.22-.07,.21-.07,.22-.22,.12-.13,.05-.11h.16l.11-.03,.06-.21s0-.15-.07-.23l-.1-.02h-.15l-.17-.06-.08-.09-.09-.1,.02-.2,.1-.05,.02-.25,.21-.17,.23-.06,.16-.15,.15-.15,.16-.2,.09-.07s.04-.12,.05-.17c0-.05,.21-.08,.21-.08l.15-.1,.22-.05,.05,.14,.09,.15,.02,.14v.21l.09,.16,.16,.1v.21l.11,.22,.14,.1v.36l.2,.16,.13,.13v.22l.02,.29-.04,.21,.07,.15,.06,.15,.14,.17,.04,.15,.19,.02,.19,.03,.05-.16-.02-.2,.06-.29,.03-.32,.1-.18,.13-.23,.15-.17,.21-.2,.13-.23s.22-.08,.31-.1c.09-.02,.17,.06,.17,.06,0,0,.08,.07,.12,.12,.04,.05,.12,.05,.17,.05s.15,.02,.15,.02h.21s.15,.11,.21,.1c.06,0,.14-.03,.22-.07,.09-.04,.22,0,.38-.02,.16,0,.16,.08,.16,.08,0,0,.2,0,.39,0s.19-.02,.24-.02,.31,0,.38,0,.39,.11,.39,.11l.22-.07,.23-.06,.33,.24s.18,0,.31-.02c.14-.02,.27,.24,.27,.24l.25,.27,.14,.25,.25,.24,.04,.29,.18,.25,.31,.3,.08,.11,.13,.07v.12l.07,.1,.07,.09-.03,.1-.09,.1-.1,.09v.23s.04,.18,.04,.18l.14,.09h.56l.17-.07,.06-.13,.16-.16,.18-.16h.17s.15-.03,.21-.04c.06,0,.2,0,.2,0l.13,.1,.13,.13,.18,.1,.18,.15,.08,.13s.05,.05,.19,.1c.14,.05,.15,.13,.15,.13,0,0,.08,.14,.13,.19l.11,.11s.03,.03,.08,.07c.05,.04,.02,.07,0,.14,0,.07,.12,.14,.12,.14l.11,.1,.1,.2-.02,.14-.12,.14-.06,.17v.24l-.09,.17-.1,.14-.09,.21-.07,.1-.13,.12-.05,.16-.13,.21-.1,.15,.11,.11,.02,.28h.51l.16-.07,.14-.15,.22-.13,.14-.17,.14-.16,.17-.13v-.22l.16-.19,.07-.26,.04-.19,.04-.18v-.33l-.11-.08-.08-.41-.06-.41-.24-.61-.14-.51-.27-.37-.37-.37-.31-.37-.29-.18-.37-.18-.25-.2-.27-.14-.26-.13-.21-.15s-.09-.07-.16-.11c-.07-.04-.11-.07-.12-.13,0-.06-.03-.11-.04-.16,0-.05,.07-.36,.07-.36,0,0,.14-.11,.14-.16s.09-.22,.09-.22l.11-.16,.12-.26v-.41l.02-.31-.1-.33-.27-.39s-.14-.2-.24-.29c-.1-.1-.31-.16-.31-.16,0,0-.24-.31-.29-.41-.06-.1-.27-.43-.27-.43l-.27-.31-.25-.31-.24-.29-.24-.25-.27-.1-.02-.29-.22-.25-.1-.27-.25-.2-.16-.31-.06-.33-.25-.27-.08-.33-.22-.55v-.21l-.19-.13-.14-.15s-.04-.12-.1-.17c-.06-.05-.13-.18-.13-.18l-.06-.21s-.09-.18-.09-.22-.06-.17-.06-.17l-.15-.12v-.27l-.14-.23-.15-.14-.06-.25-.06-.17-.18-.28-.17-.14-.1-.17-.21-.18-.02-.18-.03-.23-.08-.19,.08-.32-.06-.22-.15-.23-.17-.16v-.17l-.14-.15,.11-.15-.12-.15-.02-.13h.57l.07,.15,.12,.08,.21,.17,.18,.2,.13,.17,.27,.19,.11,.12,.09,.14,.21,.17,.15,.17,.07,.07,.05,.12,.15,.04h.21l.12,.16,.07,.1h.14l.16,.02,.1-.02h.1l.05,.11,.15,.03,.13,.11,.03,.21,.18,.15,.09,.23,.07,.25,.11,.17v.45l.13,.31,.14,.57,.27,.29,.33,.33,.24,.39,.18,.29,.24,.41,.31,.71,.39,.39,.52,.51,.18,.1,.21,.28,.18,.03,.09,.22v.23l.23,.05-.02,.27,.02,.28,.08,.19,.15,.03h.27l.14-.11,.13-.06,.25-.06,.31,.02,.14-.03,.27-.02,.07,.2,.21,.09v.59l-.02,.23-.04,.21,.13,.14,.22,.11,.16-.02,.1,.24v.27l-.04,.2,.05,.13-.15,.13-.19,.07-.02,.2,.09,.26h.17l.11,.11,.17,.1,.18,.03,.16,.18,.19,.12,.02,.41,.06,.33,.2,.16-.02,.25,.02,.29,.06,.45-.1,.31-.2,.1,.02,.37-.04,.63,.04,.33,.14,.16-.02,.27,.06,.35-.02,.43-.07,.18-.14,.1-.07,.24-.17,.06v.39l-.02,.24v.25l-.1,.05-.08,.05-.08,.11-.12,.36-.22,.39-.2,.37-.14,.22-.06,.26-.16,.03-.06,.14-.16,.15-.22-.11-.15,.1h-.21l-.06,.18-.17-.02-.07,.15-.07,.2-.15,.03-.06,.21v.45l.15,.03-.02,.21,.14,.09,.03,.19,.13,.02,.23-.02,.28,.09v.47l-.08,.11,.02,.16-.07,.15-.04,.2v.18l-.05,.22,.04,.28-.13,.21-.13,.19-.03,.21-.2,.14-.35-.02-.16-.09-.21,.09h-.38l-.11-.02-.18,.1,.18,.22,.12,.29,.24,.27,.09,.41v.28s.14,.15,.18,.2c.04,.05,.2,.14,.2,.14l.18,.29,.21,.16s.18,.14,.24,.18c.07,.04,.19,.19,.19,.19l.18,.25,.13,.18,.03,.34,.07,.16v.16l.04,.15,.15,.07,.16-.17-.05-.66,.2-.04,.02-.33-.04-.43,.18-.35,.24-.16,.1-1.67,.22-.61s-.12-.45-.12-.55-.02-.57-.02-.57l.04-1.23-.2-.22-.04-.73,.02-.76,.12-.29,.12-.24-.02-.29,.24-.18,.1-.29v-.55l.41-.02,.02-.24,.08-.41,.12-.25,.14-.22s0-.31,.22-.35v-.29l.49-.02,.04,.27,.25,.24-.02,.49-.2,.2-.02,1.51,.22,.2v.39l-.02,.35,.06,.41,.02,.31,.14,.22-.1,4.57,.14,.25-.16,.27-.06,.22,.12,.33s0,.27-.18,.37l-.1,.22-.04,.29-.14,.39,.16,.16,.24,.16-.06,.2,.24,.25,.17,.2,.11,.16-.04,.21,.09,.12-.11,.21v.21l-.12,.08-.15,.05-.07,.12-.22,.05s-.11-.1-.17-.1-.11,.06-.17,.06-.16-.07-.16-.07l-.14,.13-.09,.16s-.02,.1-.06,.15c-.04,.05-.05,.17-.05,.17l.06,.13-.1,.13-.21,.06-.15-.06h-.11l-.13-.09v-.15l-.13,.08h-.18l-.17-.04h-.35l-.22-.05-.22-.04-.27-.02-.25-.02-.24-.1-.1-.22-.31-.06s-.24,.06-.25,.29l-.24,.22-.35,.02-.35,.04-.33-.06-.27,.06h-.29l-.27-.04-.2,.1h-.25l-.18-.14h-.62l-.02,.15v.15l-.03,.16-.06,.16-.08,.14h-.29l-.16,.05-.14-.06-.06-.16-.16-.12-.07-.18h-.21l-.05,.16-.2,.17-.14,.15-.1,.17-.1,.15-.13,.17-.05,.21-.16,.16-.04,.15-.24,.08-.08,.22v.22s.16,.04,.35,.02l.18,.35,.2,.31,.06,.43,.06,.45-.08,.24-.06,.53-.1,.24,.02,.31-.14,.16-.06,.31-.12,.43,.08,.24-.12,.33-.25,.33-.22,.37v.37l-.25,.35-.02,.31-.24,.18-.39,.04h-.51l-.33-.08-.29-.14-.35-.08-.41-.06-.39-.04-.39-.1-.37-.02-.22-.35-.39-.1-.39-.08-.49-.1h-.43l-.37,.04-.31-.06-.39,.1,.02,.25,.41,.22,.08,.39,.29-.06,.41,.08,.33-.02,.35,.31h.47l.45,.27h.37l.29,.2,.61,.06,.39,.1,.57-.08,.47,.18,.61-.08h.39l.39-.22,.17-.24,.22-.19,.09-.21v-.46l.07-.22,.08-.21,.17-.17v-.18l.17-.12-.02-.2,.08-.14,.22,.07,.21-.04,.19,.08,.04,.16,.09,.24,.15,.15,.09,.26v.24l.22,.15h.23l.26,.04,.09,.26,.13,.2-.03,.3,.07,.19,.15-.02,.12,.23v.38l.16,.12,.11,.22,.21,.08,.14,.12,.16,.18,.19,.12,.14,.17,.11,.18,.21,.09,.07,.13,.12,.16,.15,.08,.06,.11v.13l.14,.09,.22,.03,.09-.11v-.19l.04-.19v-.24l.41-.02h.29l.22,.18,.25,.1,.2,.22,.25,.18,.18,.22v.37l.22,.2v.33l-.02,.45,.04,.41,.24,.18,.04,.37,.24,.29v.41l-.1,.37,.06,.43v.25l-.33,.04-.04,.22-.33,.04-.35,.02-.37,.04-.24,.02-.27,.1-.39,.06-.22-.1-.24-.2-.22-.24-.16-.27-.02-.29-.12-.25-.12-.33-.22-.2-.16-.35-.18-.1-.22-.2s-.12-.24-.27-.37l-.25-.14-.02-.31-.24-.04-.25-.25-.1-.2-.31-.2-.16-.2-.2-.2-.25-.06-.25,.12-.24,.18-.02,.24-.16,.29-.16,.2-.02,.35-.02,.25,.14,.18,.22,.1,.18,.2,.16,.18,.24,.02,.25,.14,.12,.24,.31,.18,.18,.12,.24,.16,.18,.24,.18,.24,.02,.25-.14,.29-.16,.25-.18,.22-.1,.27-.22,.14-.1,.31-.16,.14-.12,.39-.2,.12v.35l.2,.2,.18,.29v.59l-.1,.22-.1,.35-.04,.35-.16,.43-.16,.35-.22,.33-.04,.49-.1,.41-.25,.41-.24,.43-.12,.41-.27,.43-.33,.47-.27,.43-.27,.35-.37,.41-.41,.33-.37,.35-.39,.35-.35,.24-.33,.37-.43,.24-.33,.2-.51,.29-.24,.27-.16,.16-.37,.18-.29-.02-.27,.06-.35-.18-.24-.16-.43-.22-.22-.31-.25-.2-.24-.16-.25-.18-.33-.1-.25-.18-.33-.18-.27-.22-.22-.25-.24-.16-.24-.31-.18-.2-.12-.18-.33-.27-.27-.33-.18-.35-.33-.22-.29-.31-.37-.14-.31-.22-.41-.08-.27-.33-.22-.29-.22-.04-.24-.35,.04-.25-.1-.22-.12-.22,.1-.39,.22-.33,.22-.24,.18-.12-.08-.37-.08-.29-2.25-.14-.39-.12-.27-.18-.2-.22-.24-.22-.33-.18-.25-.27-.31-.25-.37-.24-.33-.27-.33-.2-.22-.1-.22-.33-.35-.16-.25-.22-.22-.25-.35-.08-.43-.25-.53-.24-.43-.1-.25-.27-.27-.06-.25-.25-.12-.25-.24-.29-.24-.33-.18-.22-.02-.39-.22-.16-.33-.37-.12-.25v-.33l.04-.37,.31-.24,.22-.2,.24-.14-.08-.31,.14-.29,.25-.24v-.29l.22-.27,.27-.16,.24-.16,.18-.24,.33-.08,.29-.2,.16-.27v-.37l.24-.27,.22-.22,.1-.29,.16-.18,.02-.22,.06-.17,.13-.15,.35,.02h.2l.06-.18,.22-.06,.04-.19-.02-.15,.05-.2,.02-.22s.23,0,.3,0,.18-.03,.18-.03v-.21l-.15-.07-.17-.05-.02-.16-.09-.06,.03-.17,.11-.11,.02-.15,.16-.08,.18-.11,.21-.1,.26-.03h.38l.09-.16v-.21l-.16-.18-.25-.18-.04-.33-.02-.27-.06-.27,.04-.33,.2-.14v-.33l.02-.31,.1-.33,.31-.18,.02-.31,.22-.35,.25-.27,.14-.25,.12-.29,.18-.24,.2-.14,.24-.27,.18-.31,.33-.35,.18-.18v-.48l.14-.22,.13-.2,.07-.35,.13-.26,.17-.23,.27-.09,.33-.16,.39-.1,.39-.06h.39l.35,.04,.22-.2-.04-.31,.12-.29,.25-.25,.1-.33v-.37l-.27-.29-.24-.27-.04-.35-.06-.27v-.27l.08-.39-.22-.27-.08-.24-.29-.12-.25-.22-.18-.22-.22-.14-.04-.31,.04-.31,.14-.18,.16-.22,.2-.14,.22-.14,.04-.51-.27-.1v-.74l-.1-.41-.37-.02-.12-.25-.31-.25-.33-.35-.35-.35-.39-.22-.39-.08-.53,.02-.27-.24-.35-.12-.39-.22-.24-.22-.22-.31-.25-.19-.14-.2v-.26l-.02-.23,.17-.18,.22-.04,.11,.1,.19-.02v-.41h-.61l-.11,.19-.21,.02v.97l.21,.12v.47l.03,.25-.08,.22-.35,.27-.22,.2-.33,.27-.35,.16-.35,.08-.14,.24-.37,.12-.35,.12-.18,.18-.27,.31-.37,.29-.31,.31-.24,.31-.18,.29-.2,.39-.08,.86-.22,.08-.08,.43,.2,.14,.12,.47,.79,.12-.02,.4v.23l.28,.06-.03,.43-.16,.14-.27,.22-.08,.33-.22,.2v.38l-.04,.28-.03,.29-.18,.04-.1,.19-.68,.04-.02,.23h.21l.02,.23,.71,.02,.04-.29,.22-.24,.18-.43,.35-.08,.47-.47-.02-.98,.51-.53h2.41l.06,.2,.43,.16v.57l.25,.12-.02,.24-.18,.2-.02,.37-.25,.27-.14,.41-.35,.59-.02,.43-.06,.53-.55,.53-1.08-.04-.06,.24-.39,.06-.84,.25-.39-.04-.67,.08-.57-.02-.59-.04-.69-.07-.49-.46h-.51l-.03,.24h-.21l-.02,1-1.24,1.03-.24-.02-.05-1.48-.18-.15v-.31l-.3,.02-.12,.69-.45-.06-1.16-1.63-.82-.1-.63-.75-.64-.04-.17-.21-.79-.03-.08-.17-.33-.06-.32,.02h-.38l-.22-.07-.72,.02-.02-.18-.7-.03-.05,.23-.18-.03-.12,.21-.21,.14-.03,.81v.3l-.23,.1-.03,.22-.25,.04-.31-.16-.25-.35-.37-.35-.1-.41,.37-.14,.29-.27,.37-.1-.04-.78-.16-.27-.02-.69,.61-.08,.12,.22,.29,.06,.2,.27h.73l.33-.41,.22-.24-.24-.39-.02-1.37,.2-.14-.08-.76-.1-.47-.31-.25-.22-.25-1.04-.02-.22,.22-.31,.04-.31,.24-.04,.43,.22,.18,.1,.33,.18,.39,.2,.65-.1,.51-.39,.29h-1.04l-.06,.8-.65,.59-.47,.16-.31,.22-.25,.27-.04,.37,.22,.16,.08,1.29,1.51,1.8v.51l.29,.31-.04,1.22,.22,.16,.06,.55,.27,.16-.16,1.37,.2,.12-.1,1.65,.22,.12,.25,.24,.14,.31,.24,.65,.18,.2,.08,.41v.51l-.06,.37-.16,.45-.37,.29-.02,.57,.47,.35,.55,.55,.51,.59,.39,.71,.43,.63,.71,.98,.74,1.18,.02,.76-.51,.51-.92-.02-.67,.02-.24,.25-.78,.04-.43,.04-.27,.25-.27,.22-.33,.16-.55,.1h-.29l-.35-.02-.29-.08-.22-.16-.39-.24-2.69-.08-.29-.12-.98-.08-1.88-1.92-1.31-.88-.59-1.08-1.22-.08-.27-.16-.33-.61-.18-.27-.22-.33-.02-.27-.22-.24-.25-.2-.45-.18-.22-.06-.41-.25-.22-.2-.22-.25-.33-.22-.25-.31-.41-.24-.2,.08,.06,.27h-.35l-.35-.1-.22-.18-.27-.27-.16-.24-.35-.35-.37-.1-.53-.12-.06-.35-.27-.33-.22-.27-.12-.35-.16-.24-.12-.33-.02-.33-.16-.24-.02-.31v-.37l-.02-.41,.08-.33v-.39l.16-.22,.16-.25,.14-.24v-.31l.14-.2,.14-.24,.24-.25,.35-.04,.45-.02,.31,.04,.12,.22h.51Zm26.4-7.32l.03-.18,.2-.1h.25l.26-.02h.2l.14-.18,.1-.06,.23,.03,.16,.11,.26,.04v-.16l.2-.06,.17,.06,.24-.02h.62l.07,.1,.13-.03,.1,.07,.17,.14,.19-.04-.04-.21-.06-.2-.19-.04s-.2-.03-.24-.03-.21-.04-.21-.04l-.14-.13-.02-.15-.08-.17-.11-.16-.09-.21-.13-.19-.19-.14h-.24l-.32-.09-.25,.02-.23,.09h-.39l-.06,.19-.26,.11-.11,.13-.12,.25-.02,.22-.09,.27,.06,.19-.19,.02-.19,.05-.09,.21-.18,.05v.21l.21,.02h.24Zm18.65,5.04l-.11,.13,.07,.22v.23l-.06,.27,.13,.14-.05,.18-.08,.17v.19s.17,0,.18-.05c0-.05,.08-.17,.08-.17l.16-.05,.16-.02,.06,.12,.04,.15h.19l.12,.14v.22s.15,.07,.21,.07,.14,.19,.14,.19l.11,.15,.17,.07,.11-.15s.1-.26,.1-.37-.05-.24-.05-.24l-.19-.21-.1-.21-.22-.11-.17-.12v-.17l-.06-.15-.24-.06-.15-.13v-.16l-.16-.13-.12-.15h-.25Zm-2.64,4.54l.02-.31,.18-.12,.26-.1,.05-.24,.34-.13,.23-.14,.31-.16,.36,.02v.29l-.16,.15-.27,.14-.19,.14-.32,.2-.21,.04-.14,.13-.2,.15-.28-.05h0Zm7.07-.45l.16-.11,.12-.11,.11,.09,.21,.09h.23v-.12l.17-.11,.07-.13v-.2c0-.06,.11-.1,.11-.1l.15-.04,.14-.02s.05-.16,.04-.21c0-.05,.05-.12,.05-.12l.25-.02,.05,.18-.09,.16v.14l-.15,.15-.07,.12-.12,.11-.14,.13-.07,.09-.02,.16-.11,.11-.16,.03h-.2l-.17-.07h-.23l-.12,.09-.19-.02-.02-.25h0Zm4.36-33.08l.17-.08v-.18l.22-.14,.25-.06,.33-.04,.25-.12,.39,.14,.24,.16,.14,.18,.22,.08,.02,.35,.22,.14,.1,.37v.71l.22,.12-.02,.82,.02,.33,.22,.31,.18,.24,.24,.24,.35,.2,.98,.14,.16,.14,.2,.31,.1,.33,.27,.25,.33,.29,.22,.31,.78,.16,.31,.33,.2,.29,.82,.22,.27,.1,.39,.31,.41,.35,.53,.53,.35,.34,.07,.19,.11,.18,.12,.16,.07,.18,.02,.26,.16,.1,.13,.14,.16,.13h.25l.24,.05,.07-.12,.23-.03h.5l.47-.03,.07-.22h.33l.39-.14,.21-.19,.14-.2,.14-.18,.1-.43,.06-.26-.02-.27-.03-.33-.16-.28-.05-.28-.06-.23-.09-.22-.18-.13-.33-.47-.16-.39-.33-.24-.33-.37-.22-.27-.08-.35-.16-.31-.18-.22-.24-.25-.2-.31-.33-.27-.24-.25-.31-.24-.22-.29-.12-.31-.1-.25-.18-.29-.16-.25-.33-.24-.25-.22-.24-.12-.27-.1-.35-.45-.29-.27-.22-.27-.33-.14-.14-.82-.02-.26-.04-.33v-.37l-.17-.21-.78-.96-.22-.25-.24-.33-.14-.39-.08-.47-.27-.33-.12-.29-.29-.14-.25-.28-.16-.19-.2-.2-.14-.12-.25-.16-.17-.18-.16-.04-.17-.03-.21-.14-.14-.1h-.12l-.04-.15-.08-.13-.2-.06-.03-.18-.15-.06h-.41l-.19-.04-.08-.17-.17-.04-.21-.03-.28-.02-.16-.15-.24-.03-.27-.02h-.34l-.28,.03h-.35l-.19-.05-.14,.22-.18,.04h-.23l-.2,.12-.22,.18-.09,.24-.17,.18v.57l-.09,.19-.15,.15-.05,.28v.34l-.2,.03-.05,.2v.45l-.02,.31,.17,.22,.15,.4,.17,.21,.23,.43,.13,.29,.17,.32,.17,.13,.2,.18,.19,.11,.02,.17-.1,.18-.18,.04,.02,.92,.19,.09,.16,.21,.15,.14-.02,.41v.25l.18,.02,.11,.34,.09,.11,.22,.04,.16,.16h0Zm1.74-9.78l.07,.21v.26l.17,.18,.14,.17,.18,.1,.16,.12v.28l.23,.09h.19l.17,.08,.15,.16,.16,.15,.21,.05,.21,.06,.21-.05,.13-.17,.12-.18-.03-.22,.1-.22-.11-.13-.15-.15,.05-.2,.1-.2-.03-.12-.17-.15h-.12l-.14-.18-.1-.11-.05-.21-.21,.04h-.47l-.21-.02-.22-.04h-.17l-.24,.05-.24-.02-.05,.37h0Zm-17.82-4.18l.31,.24,.37,.37,.43,.25,.59,.24h.55l.43-.02h.61l.35-.24h.55l.74,.04,.61-.08,.41,.08,.47-.06,.47-.14,.35-.31,.51-.31,.06-.47-.27-.33-.37-.35-.27-.16s-.31-.2-.41-.24c-.1-.04-.41-.22-.41-.22l-.35-.02-.61,.08-.51,.1-.96-.02-.24,.25-.31,.24-.65,.14-.55,.22-.65,.12-.41,.06h-.41l-.43,.55h0Z"/>
      <rect class="cls-1" width="399" height="120.6"/>
    </g>
  </g>
</svg>