<?xml version="1.0" encoding="utf-8"?>
<!-- Generator: Adobe Illustrator 26.5.0, SVG Export Plug-In . SVG Version: 6.00 Build 0)  -->
<svg version="1.1" id="Camada_1" xmlns="http://www.w3.org/2000/svg" xmlns:xlink="http://www.w3.org/1999/xlink" x="0px" y="0px"
	 viewBox="0 0 345 266.6" style="enable-background:new 0 0 345 266.6;" xml:space="preserve">
<style type="text/css">
	.st0{fill:#FBC642;}
	.st1{fill:#E0403D;}
	.st2{fill:#FFFFFF;}
</style>
<g id="Layer_1">
</g>
<g>
	<polygon class="st0" points="26.3,55.2 17.6,209.7 49.7,211.2 95.1,244.8 86.8,208.7 332.9,218.5 333.9,12.5 333.9,12.3 	"/>
	<polygon class="st1" points="19.9,64.7 11.1,219.3 43.3,220.7 88.6,254.3 80.3,218.3 326.5,228 327.4,21.8 	"/>
	<path class="st0" d="M27.5,150.6h-8.5V139H29l1.6-12.3h-8.2v-11.6h9.7l2.8-21.9h9.7l-2.8,21.9h9.7l2.8-21.9H64l-2.8,21.9h8.5v11.6
		h-9.9L58.1,139h8.2v11.6h-9.7l-2.8,21.9h-9.7l2.8-21.9h-9.7l-2.8,21.9h-9.7L27.5,150.6z M38.7,139h9.7l1.6-12.3h-9.7L38.7,139z"/>
	<path class="st0" d="M100.4,105c0,6.6-3.8,10.9-9.4,10.9h-4.6c-0.2,0-0.3,0.1-0.3,0.3v15.2c0,0.4-0.3,0.7-0.7,0.7h-5
		c-0.4,0-0.7-0.3-0.7-0.7v-37c0-0.4,0.3-0.7,0.7-0.7h10.2C96.5,93.7,100.4,98.3,100.4,105 M94.1,105.2c0-3.7-1.8-6-4.5-6h-3.3
		c-0.2,0-0.3,0.1-0.3,0.3v11.2c0,0.2,0.1,0.3,0.3,0.3h3.3C92.3,111,94.1,108.8,94.1,105.2"/>
	<path class="st0" d="M118.9,131.5l-1-5.7c0-0.2-0.2-0.3-0.3-0.3h-7.9c-0.2,0-0.3,0.1-0.3,0.2l-1.1,5.8c-0.1,0.4-0.3,0.6-0.7,0.6h-5
		c-0.4,0-0.7-0.2-0.5-0.7l8-37c0.1-0.4,0.3-0.6,0.7-0.6h5.8c0.4,0,0.7,0.2,0.7,0.6l8.1,37c0.1,0.5-0.2,0.7-0.6,0.7h-5.1
		C119.3,132.1,119,131.9,118.9,131.5 M110.7,120.5h5.9c0.2,0,0.3-0.1,0.3-0.3l-3-16.5c-0.1-0.2-0.3-0.2-0.3,0l-3.2,16.5
		C110.4,120.4,110.6,120.5,110.7,120.5"/>
	<path class="st0" d="M144.6,131.5l-4.7-15.8c-0.1-0.1-0.1-0.2-0.3-0.2h-2.8c-0.2,0-0.3,0.1-0.3,0.3v15.6c0,0.4-0.3,0.7-0.7,0.7h-5
		c-0.4,0-0.7-0.3-0.7-0.7v-37c0-0.4,0.3-0.7,0.7-0.7h10.2c5.8,0,9.7,4.5,9.7,11.2c0,4.5-1.8,8-5,9.6c-0.2,0.1-0.2,0.2-0.2,0.3
		l5.3,16.5c0.2,0.5-0.1,0.8-0.5,0.8h-5.2C144.9,132.1,144.7,131.9,144.6,131.5 M136.5,99.5v10.9c0,0.2,0.1,0.3,0.3,0.3h3.3
		c2.6,0,4.4-2.1,4.4-5.6c0-3.6-1.8-5.8-4.4-5.8h-3.3C136.6,99.2,136.5,99.3,136.5,99.5"/>
	<path class="st0" d="M175.9,94.4v4.2c0,0.4-0.3,0.7-0.7,0.7h-6.9c-0.2,0-0.3,0.1-0.3,0.3v31.9c0,0.4-0.3,0.7-0.7,0.7h-5
		c-0.4,0-0.7-0.3-0.7-0.7V99.5c0-0.2-0.1-0.3-0.3-0.3H155c-0.4,0-0.7-0.3-0.7-0.7v-4.2c0-0.4,0.3-0.7,0.7-0.7h20.3
		C175.6,93.8,175.9,94.1,175.9,94.4"/>
	<path class="st0" d="M180.8,131.4v-37c0-0.4,0.3-0.7,0.7-0.7h5c0.4,0,0.7,0.3,0.7,0.7v37c0,0.4-0.3,0.7-0.7,0.7h-5
		C181,132.1,180.8,131.8,180.8,131.4"/>
	<path class="st0" d="M193.2,121.5v-27c0-0.4,0.3-0.7,0.7-0.7h5c0.4,0,0.7,0.3,0.7,0.7v27.7c0,2.9,1.6,4.9,4,4.9c2.4,0,4-2,4-4.9
		V94.4c0-0.4,0.3-0.7,0.7-0.7h5c0.4,0,0.7,0.3,0.7,0.7v27c0,6.7-4.1,11.1-10.3,11.1C197.2,132.5,193.2,128.2,193.2,121.5"/>
	<path class="st0" d="M97.7,142.8H86c-0.2,0-0.3,0.1-0.3,0.3v10.3c0,0.2,0.1,0.3,0.3,0.3h7c0.4,0,0.7,0.3,0.7,0.7v4.2
		c0,0.4-0.3,0.7-0.7,0.7h-7c-0.2,0-0.3,0.1-0.3,0.3v10.4c0,0.2,0.1,0.3,0.3,0.3h11.8c0.4,0,0.7,0.3,0.7,0.7v4.2
		c0,0.4-0.3,0.7-0.7,0.7H80c-0.4,0-0.7-0.3-0.7-0.7v-37c0-0.4,0.3-0.7,0.7-0.7h17.7c0.4,0,0.7,0.3,0.7,0.7v4.2
		C98.4,142.5,98.1,142.8,97.7,142.8"/>
	<path class="st0" d="M103.4,174.9v-37c0-0.4,0.3-0.7,0.7-0.7h5c0.3,0,0.6,0.1,0.8,0.5l5.2,11.8c0.1,0.2,0.2,0.2,0.3,0l5.2-11.8
		c0.2-0.4,0.4-0.5,0.8-0.5h5c0.4,0,0.7,0.3,0.7,0.7v37c0,0.4-0.3,0.7-0.7,0.7h-5c-0.4,0-0.7-0.3-0.7-0.7v-23.9
		c0-0.3-0.2-0.3-0.3-0.1l-4.7,9.6c-0.2,0.3-0.3,0.5-0.4,0.5c-0.1,0-0.3-0.2-0.4-0.5l-4.7-9.7c-0.1-0.2-0.3-0.2-0.3,0.1v23.9
		c0,0.4-0.3,0.7-0.7,0.7h-5C103.7,175.6,103.4,175.3,103.4,174.9"/>
	<path class="st0" d="M153.4,148.5c0,6.6-3.8,10.9-9.4,10.9h-4.6c-0.2,0-0.3,0.1-0.3,0.3v15.2c0,0.4-0.3,0.7-0.7,0.7h-5
		c-0.4,0-0.7-0.3-0.7-0.7v-37c0-0.4,0.3-0.7,0.7-0.7h10.2C149.5,137.2,153.4,141.8,153.4,148.5 M147.1,148.7c0-3.7-1.8-6-4.5-6h-3.3
		c-0.2,0-0.3,0.1-0.3,0.3v11.2c0,0.2,0.1,0.3,0.3,0.3h3.3C145.3,154.5,147.1,152.3,147.1,148.7"/>
	<path class="st0" d="M172.5,175.1l-4.7-15.8c-0.1-0.1-0.1-0.2-0.3-0.2h-2.8c-0.2,0-0.3,0.1-0.3,0.3v15.6c0,0.4-0.3,0.7-0.7,0.7h-5
		c-0.4,0-0.7-0.3-0.7-0.7v-37c0-0.4,0.3-0.7,0.7-0.7h10.2c5.8,0,9.7,4.5,9.7,11.2c0,4.5-1.8,8-5,9.6c-0.2,0.1-0.2,0.2-0.2,0.3
		l5.3,16.5c0.2,0.5-0.1,0.8-0.5,0.8h-5.2C172.9,175.6,172.7,175.4,172.5,175.1 M164.5,143v10.9c0,0.2,0.1,0.3,0.3,0.3h3.3
		c2.6,0,4.4-2.1,4.4-5.6c0-3.6-1.8-5.8-4.4-5.8h-3.3C164.6,142.7,164.5,142.8,164.5,143"/>
	<path class="st0" d="M202,142.8h-11.8c-0.2,0-0.3,0.1-0.3,0.3v10.3c0,0.2,0.1,0.3,0.3,0.3h7c0.4,0,0.7,0.3,0.7,0.7v4.2
		c0,0.4-0.3,0.7-0.7,0.7h-7c-0.2,0-0.3,0.1-0.3,0.3v10.4c0,0.2,0.1,0.3,0.3,0.3H202c0.4,0,0.7,0.3,0.7,0.7v4.2
		c0,0.4-0.3,0.7-0.7,0.7h-17.7c-0.4,0-0.7-0.3-0.7-0.7v-37c0-0.4,0.3-0.7,0.7-0.7H202c0.4,0,0.7,0.3,0.7,0.7v4.2
		C202.7,142.5,202.4,142.8,202,142.8"/>
	<path class="st0" d="M226.2,142.8h-11.8c-0.2,0-0.3,0.1-0.3,0.3v10.3c0,0.2,0.1,0.3,0.3,0.3h7c0.4,0,0.7,0.3,0.7,0.7v4.2
		c0,0.4-0.3,0.7-0.7,0.7h-7c-0.2,0-0.3,0.1-0.3,0.3v10.4c0,0.2,0.1,0.3,0.3,0.3h11.8c0.4,0,0.7,0.3,0.7,0.7v4.2
		c0,0.4-0.3,0.7-0.7,0.7h-17.7c-0.4,0-0.7-0.3-0.7-0.7v-37c0-0.4,0.3-0.7,0.7-0.7h17.7c0.4,0,0.7,0.3,0.7,0.7v4.2
		C226.8,142.5,226.5,142.8,226.2,142.8"/>
	<path class="st0" d="M232,174.9v-37c0-0.4,0.3-0.7,0.7-0.7h5.2c0.4,0,0.7,0.2,0.8,0.5l8.4,22.3c0.1,0.2,0.3,0.2,0.3-0.1v-22
		c0-0.4,0.3-0.7,0.7-0.7h5c0.4,0,0.7,0.3,0.7,0.7v37c0,0.4-0.3,0.7-0.7,0.7h-5.3c-0.4,0-0.7-0.2-0.8-0.5l-8.5-22.3
		c-0.1-0.2-0.3-0.2-0.3,0.1l0.1,22.1c0,0.4-0.3,0.7-0.7,0.7h-4.9C232.2,175.6,232,175.3,232,174.9"/>
	<path class="st0" d="M259.9,174.9v-37c0-0.4,0.3-0.7,0.7-0.7h9.3c6.3,0,10.3,4.1,10.3,10.4v17.4c0,6.3-4,10.5-10.3,10.5h-9.3
		C260.2,175.6,259.9,175.3,259.9,174.9 M266.5,170.1l3.3-0.1c2.4,0,4-2.1,4.1-5.3v-16.6c0-3.3-1.6-5.4-4.1-5.4h-3.2
		c-0.2,0-0.3,0.1-0.3,0.3v26.8C266.3,170,266.4,170.1,266.5,170.1"/>
	<path class="st0" d="M304.2,142.8h-11.8c-0.2,0-0.3,0.1-0.3,0.3v10.3c0,0.2,0.1,0.3,0.3,0.3h7c0.4,0,0.7,0.3,0.7,0.7v4.2
		c0,0.4-0.3,0.7-0.7,0.7h-7c-0.2,0-0.3,0.1-0.3,0.3v10.4c0,0.2,0.1,0.3,0.3,0.3h11.8c0.4,0,0.7,0.3,0.7,0.7v4.2
		c0,0.4-0.3,0.7-0.7,0.7h-17.7c-0.4,0-0.7-0.3-0.7-0.7v-37c0-0.4,0.3-0.7,0.7-0.7h17.7c0.4,0,0.7,0.3,0.7,0.7v4.2
		C304.8,142.5,304.6,142.8,304.2,142.8"/>
	<path class="st0" d="M324.3,175.1l-4.7-15.8c-0.1-0.1-0.1-0.2-0.3-0.2h-2.8c-0.2,0-0.3,0.1-0.3,0.3v15.6c0,0.4-0.3,0.7-0.7,0.7h-5
		c-0.4,0-0.7-0.3-0.7-0.7v-37c0-0.4,0.3-0.7,0.7-0.7h10.2c5.8,0,9.7,4.5,9.7,11.2c0,4.5-1.9,8-5,9.6c-0.2,0.1-0.2,0.2-0.2,0.3
		l5.3,16.5c0.2,0.5-0.1,0.8-0.5,0.8H325C324.6,175.6,324.4,175.4,324.3,175.1 M316.3,143v10.9c0,0.2,0.1,0.3,0.3,0.3h3.3
		c2.6,0,4.4-2.1,4.4-5.6c0-3.6-1.8-5.8-4.4-5.8h-3.3C316.4,142.7,316.3,142.8,316.3,143"/>
	<path class="st2" d="M23.5,153h-8.5v-11.6h10l1.6-12.3h-8.3v-11.6H28l2.8-21.9h9.8l-2.8,21.9h9.8l2.8-21.9h9.8l-2.8,21.9h8.5v11.6
		h-10l-1.6,12.3h8.3V153h-9.8l-2.8,21.9h-9.8L43,153h-9.8l-2.8,21.9h-9.8L23.5,153z M34.7,141.4h9.8l1.6-12.3h-9.8L34.7,141.4z"/>
	<path class="st2" d="M96.7,107.4c0,6.6-3.8,10.9-9.5,10.9h-4.7c-0.2,0-0.3,0.1-0.3,0.3v15.2c0,0.4-0.3,0.7-0.7,0.7h-5
		c-0.4,0-0.7-0.3-0.7-0.7v-37c0-0.4,0.3-0.7,0.7-0.7h10.3C92.8,96.1,96.7,100.7,96.7,107.4 M90.4,107.6c0-3.7-1.8-6-4.5-6h-3.3
		c-0.2,0-0.3,0.1-0.3,0.3v11.2c0,0.2,0.1,0.3,0.3,0.3h3.3C88.5,113.4,90.4,111.2,90.4,107.6"/>
	<path class="st2" d="M115.4,133.9l-1-5.7c0-0.2-0.2-0.3-0.3-0.3h-7.9c-0.2,0-0.3,0.1-0.3,0.2l-1.1,5.8c-0.1,0.4-0.3,0.6-0.7,0.6h-5
		c-0.4,0-0.7-0.2-0.5-0.7l8-37c0.1-0.4,0.3-0.6,0.7-0.6h5.9c0.4,0,0.7,0.2,0.7,0.6l8.1,37c0.1,0.5-0.2,0.7-0.6,0.7h-5.1
		C115.7,134.5,115.4,134.3,115.4,133.9 M107.1,122.9h6c0.2,0,0.3-0.1,0.3-0.3l-3-16.5c-0.1-0.2-0.3-0.2-0.3,0l-3.2,16.5
		C106.8,122.8,106.9,122.9,107.1,122.9"/>
	<path class="st2" d="M141.1,134l-4.7-15.8c-0.1-0.1-0.1-0.2-0.3-0.2h-2.8c-0.2,0-0.3,0.1-0.3,0.3v15.6c0,0.4-0.3,0.7-0.7,0.7h-5
		c-0.4,0-0.7-0.3-0.7-0.7v-37c0-0.4,0.3-0.7,0.7-0.7h10.3c5.9,0,9.8,4.5,9.8,11.2c0,4.5-1.9,8-5,9.6c-0.2,0.1-0.2,0.2-0.2,0.3
		l5.4,16.5c0.2,0.5-0.1,0.8-0.5,0.8h-5.3C141.5,134.5,141.2,134.3,141.1,134 M133,101.9v10.9c0,0.2,0.1,0.3,0.3,0.3h3.3
		c2.6,0,4.4-2.1,4.4-5.6c0-3.6-1.8-5.8-4.4-5.8h-3.3C133.1,101.6,133,101.7,133,101.9"/>
	<path class="st2" d="M172.6,96.9v4.2c0,0.4-0.3,0.7-0.7,0.7H165c-0.2,0-0.3,0.1-0.3,0.3v31.9c0,0.4-0.3,0.7-0.7,0.7h-5
		c-0.4,0-0.7-0.3-0.7-0.7v-31.9c0-0.2-0.1-0.3-0.3-0.3h-6.6c-0.4,0-0.7-0.3-0.7-0.7v-4.2c0-0.4,0.3-0.7,0.7-0.7H172
		C172.4,96.2,172.6,96.5,172.6,96.9"/>
	<path class="st2" d="M177.5,133.8v-37c0-0.4,0.3-0.7,0.7-0.7h5c0.4,0,0.7,0.3,0.7,0.7v37c0,0.4-0.3,0.7-0.7,0.7h-5
		C177.8,134.5,177.5,134.2,177.5,133.8"/>
	<path class="st2" d="M190,123.9v-27c0-0.4,0.3-0.7,0.7-0.7h5c0.4,0,0.7,0.3,0.7,0.7v27.7c0,2.9,1.6,4.9,4,4.9s4-2,4-4.9V96.9
		c0-0.4,0.3-0.7,0.7-0.7h5c0.4,0,0.7,0.3,0.7,0.7v27c0,6.7-4.2,11.1-10.3,11.1C194.1,134.9,190,130.6,190,123.9"/>
	<path class="st2" d="M94,145.2H82.2c-0.2,0-0.3,0.1-0.3,0.3v10.3c0,0.2,0.1,0.3,0.3,0.3h7c0.4,0,0.7,0.3,0.7,0.7v4.2
		c0,0.4-0.3,0.7-0.7,0.7h-7c-0.2,0-0.3,0.1-0.3,0.3v10.4c0,0.2,0.1,0.3,0.3,0.3H94c0.4,0,0.7,0.3,0.7,0.7v4.2c0,0.4-0.3,0.7-0.7,0.7
		H76.2c-0.4,0-0.7-0.3-0.7-0.7v-37c0-0.4,0.3-0.7,0.7-0.7H94c0.4,0,0.7,0.3,0.7,0.7v4.2C94.7,144.9,94.4,145.2,94,145.2"/>
	<path class="st2" d="M99.7,177.4v-37c0-0.4,0.3-0.7,0.7-0.7h5c0.3,0,0.6,0.1,0.8,0.5l5.3,11.8c0.1,0.2,0.2,0.2,0.3,0l5.2-11.8
		c0.2-0.4,0.4-0.5,0.8-0.5h5c0.4,0,0.7,0.3,0.7,0.7v37c0,0.4-0.3,0.7-0.7,0.7h-5c-0.4,0-0.7-0.3-0.7-0.7v-23.9
		c0-0.3-0.2-0.3-0.3-0.1L112,163c-0.2,0.3-0.3,0.5-0.4,0.5c-0.1,0-0.3-0.2-0.4-0.5l-4.7-9.7c-0.1-0.2-0.3-0.2-0.3,0.1v23.9
		c0,0.4-0.3,0.7-0.7,0.7h-5C100,178,99.7,177.7,99.7,177.4"/>
	<path class="st2" d="M150.1,150.9c0,6.6-3.8,10.9-9.5,10.9h-4.7c-0.2,0-0.3,0.1-0.3,0.3v15.2c0,0.4-0.3,0.7-0.7,0.7h-5
		c-0.4,0-0.7-0.3-0.7-0.7v-37c0-0.4,0.3-0.7,0.7-0.7h10.3C146.1,139.7,150.1,144.3,150.1,150.9 M143.7,151.1c0-3.7-1.8-6-4.5-6h-3.3
		c-0.2,0-0.3,0.1-0.3,0.3v11.2c0,0.2,0.1,0.3,0.3,0.3h3.3C141.9,156.9,143.7,154.7,143.7,151.1"/>
	<path class="st2" d="M169.3,177.5l-4.7-15.8c-0.1-0.1-0.1-0.2-0.3-0.2h-2.8c-0.2,0-0.3,0.1-0.3,0.3v15.6c0,0.4-0.3,0.7-0.7,0.7h-5
		c-0.4,0-0.7-0.3-0.7-0.7v-37c0-0.4,0.3-0.7,0.7-0.7h10.3c5.9,0,9.8,4.5,9.8,11.2c0,4.5-1.9,8-5,9.6c-0.2,0.1-0.2,0.2-0.2,0.3
		l5.4,16.5c0.2,0.5-0.1,0.8-0.5,0.8H170C169.6,178,169.4,177.8,169.3,177.5 M161.2,145.4v10.9c0,0.2,0.1,0.3,0.3,0.3h3.3
		c2.6,0,4.4-2.1,4.4-5.6c0-3.6-1.8-5.8-4.4-5.8h-3.3C161.3,145.1,161.2,145.2,161.2,145.4"/>
	<path class="st2" d="M198.9,145.2h-11.8c-0.2,0-0.3,0.1-0.3,0.3v10.3c0,0.2,0.1,0.3,0.3,0.3h7c0.4,0,0.7,0.3,0.7,0.7v4.2
		c0,0.4-0.3,0.7-0.7,0.7h-7c-0.2,0-0.3,0.1-0.3,0.3v10.4c0,0.2,0.1,0.3,0.3,0.3h11.8c0.4,0,0.7,0.3,0.7,0.7v4.2
		c0,0.4-0.3,0.7-0.7,0.7h-17.8c-0.4,0-0.7-0.3-0.7-0.7v-37c0-0.4,0.3-0.7,0.7-0.7h17.8c0.4,0,0.7,0.3,0.7,0.7v4.2
		C199.6,144.9,199.3,145.2,198.9,145.2"/>
	<path class="st2" d="M223.2,145.2h-11.8c-0.2,0-0.3,0.1-0.3,0.3v10.3c0,0.2,0.1,0.3,0.3,0.3h7c0.4,0,0.7,0.3,0.7,0.7v4.2
		c0,0.4-0.3,0.7-0.7,0.7h-7c-0.2,0-0.3,0.1-0.3,0.3v10.4c0,0.2,0.1,0.3,0.3,0.3h11.8c0.4,0,0.7,0.3,0.7,0.7v4.2
		c0,0.4-0.3,0.7-0.7,0.7h-17.8c-0.4,0-0.7-0.3-0.7-0.7v-37c0-0.4,0.3-0.7,0.7-0.7h17.8c0.4,0,0.7,0.3,0.7,0.7v4.2
		C223.8,144.9,223.5,145.2,223.2,145.2"/>
	<path class="st2" d="M229,177.4v-37c0-0.4,0.3-0.7,0.7-0.7h5.3c0.4,0,0.7,0.2,0.8,0.5l8.5,22.3c0.1,0.2,0.3,0.2,0.3-0.1v-22
		c0-0.4,0.3-0.7,0.7-0.7h5c0.4,0,0.7,0.3,0.7,0.7v37c0,0.4-0.3,0.7-0.7,0.7h-5.3c-0.4,0-0.7-0.2-0.8-0.5l-8.5-22.3
		c-0.1-0.2-0.3-0.2-0.3,0.1l0.1,22.1c0,0.4-0.3,0.7-0.7,0.7h-4.9C229.3,178,229,177.7,229,177.4"/>
	<path class="st2" d="M257.1,177.4v-37c0-0.4,0.3-0.7,0.7-0.7h9.4c6.3,0,10.3,4.1,10.3,10.4v17.4c0,6.3-4,10.4-10.3,10.4h-9.4
		C257.4,178,257.1,177.7,257.1,177.4 M263.8,172.5l3.3-0.1c2.4,0,4-2.1,4.1-5.3v-16.6c0-3.3-1.6-5.4-4.2-5.4h-3.2
		c-0.2,0-0.3,0.1-0.3,0.3v26.8C263.5,172.4,263.6,172.5,263.8,172.5"/>
	<path class="st2" d="M301.6,145.2h-11.8c-0.2,0-0.3,0.1-0.3,0.3v10.3c0,0.2,0.1,0.3,0.3,0.3h7c0.4,0,0.7,0.3,0.7,0.7v4.2
		c0,0.4-0.3,0.7-0.7,0.7h-7c-0.2,0-0.3,0.1-0.3,0.3v10.4c0,0.2,0.1,0.3,0.3,0.3h11.8c0.4,0,0.7,0.3,0.7,0.7v4.2
		c0,0.4-0.3,0.7-0.7,0.7h-17.8c-0.4,0-0.7-0.3-0.7-0.7v-37c0-0.4,0.3-0.7,0.7-0.7h17.8c0.4,0,0.7,0.3,0.7,0.7v4.2
		C302.3,144.9,302,145.2,301.6,145.2"/>
	<path class="st2" d="M321.9,177.5l-4.7-15.8c-0.1-0.1-0.1-0.2-0.3-0.2H314c-0.2,0-0.3,0.1-0.3,0.3v15.6c0,0.4-0.3,0.7-0.7,0.7h-5
		c-0.4,0-0.7-0.3-0.7-0.7v-37c0-0.4,0.3-0.7,0.7-0.7h10.3c5.9,0,9.8,4.5,9.8,11.2c0,4.5-1.9,8-5,9.6c-0.2,0.1-0.2,0.2-0.2,0.3
		l5.4,16.5c0.2,0.5-0.1,0.8-0.5,0.8h-5.3C322.2,178,322,177.8,321.9,177.5 M313.8,145.4v10.9c0,0.2,0.1,0.3,0.3,0.3h3.3
		c2.6,0,4.4-2.1,4.4-5.6c0-3.6-1.8-5.8-4.4-5.8H314C313.9,145.1,313.8,145.2,313.8,145.4"/>
</g>
</svg>
