<?xml version="1.0" encoding="UTF-8"?>
<svg id="Layer_2" data-name="Layer 2" xmlns="http://www.w3.org/2000/svg" viewBox="0 0 547.52 105">
  <defs>
    <style>
      .cls-1 {
        fill: #a8ffff;
      }
    </style>
  </defs>
  <g id="content">
    <g>
      <path class="cls-1" d="M41.91,0c24.21,0,41.91,17.93,41.91,40.9s-17.71,41.91-41.91,41.91S0,64.43,0,40.9,17.71,0,41.91,0Zm0,64.88c11.99,0,21.63-10.31,21.63-23.98s-9.64-22.97-21.63-22.97-21.63,9.86-21.63,22.97,9.64,23.98,21.63,23.98Z"/>
      <path class="cls-1" d="M94.91,1.34h19.39V23.64c0,2.91-.22,4.93-.22,4.93h.22s5.38-6.16,15.58-6.16c15.69,0,26,12.33,26,30.26s-11.54,30.14-26.89,30.14c-10.65,0-15.8-6.5-15.8-6.5h-.22s.11,1.46,.11,3.25v1.91h-18.15V1.34Zm30.14,65.44c6.05,0,11.32-4.93,11.32-13.78s-4.59-14.23-11.32-14.23c-5.83,0-11.32,4.26-11.32,14.23,0,6.95,3.7,13.78,11.32,13.78Z"/>
      <path class="cls-1" d="M166.3,23.76h18.6v9.75c0,1.91-.22,3.59-.22,3.59h.22c2.47-7.84,9.75-14.34,18.38-14.34,1.12,0,2.24,.22,2.24,.22v19.05s-1.57-.34-3.92-.34c-4.59,0-12.1,1.46-14.9,10.08-.67,2.13-1.01,4.71-1.01,7.84v21.85h-19.39V23.76Z"/>
      <path class="cls-1" d="M214.48,23.76h19.39v57.71h-19.39V23.76Zm.22-22.41h18.94v15.13h-18.94V1.34Z"/>
      <path class="cls-1" d="M271.63,88.86c6.95,0,13.33-2.58,13.33-11.09v-1.91c0-.67,.11-2.13,.11-2.13h-.22c-3.36,4.03-7.73,6.05-14.46,6.05-17.37,0-26-14.23-26-29.02s8.41-28.35,25.89-28.35c10.53,0,15.69,5.6,15.69,5.6h.34s-.11-.67-.11-1.34v-2.91h18.15v52.44c0,21.07-16.81,28.8-32.61,28.8-7.73,0-16.25-2.24-21.85-5.16l5.49-14.68s7.17,3.7,16.25,3.7Zm13.78-37.88c0-10.2-5.38-12.44-11.21-12.44-6.84,0-10.31,4.93-10.31,11.54,0,7.17,3.36,13.56,11.09,13.56,5.04,0,10.42-2.58,10.42-12.66Z"/>
      <path class="cls-1" d="M347.83,45.5h.78v-1.01c0-4.82-3.7-6.39-8.52-6.39-7.28,0-15.58,5.49-15.58,5.49l-6.72-13.67s9.97-7.51,24.21-7.51c16.25,0,26,8.85,26,23.53v35.52h-17.71v-3.47c0-1.91,.22-3.59,.22-3.59h-.22s-4.26,8.4-16.36,8.4c-10.76,0-19.61-7.17-19.61-18.6,0-16.81,24.54-18.71,33.51-18.71Zm-8.52,22.52c5.04,0,9.53-5.49,9.53-10.2v-1.23h-1.79c-6.16,0-13.22,1.79-13.22,6.61,0,2.69,1.68,4.82,5.49,4.82Z"/>
      <path class="cls-1" d="M403.86,22.41c11.65,0,15.13,4.59,15.13,4.59h.22s-.11-1.12-.11-2.58V1.34h19.39V81.47h-18.15v-3.81c0-1.79,.11-3.25,.11-3.25h-.22s-4.82,8.4-16.7,8.4c-15.69,0-26-12.33-26-30.26s10.98-30.14,26.33-30.14Zm4.48,44.38c5.83,0,11.32-4.26,11.32-14.23,0-6.95-3.7-13.78-11.32-13.78-6.05,0-11.32,4.93-11.32,13.78s4.59,14.23,11.32,14.23Z"/>
      <path class="cls-1" d="M481.18,22.41c18.27,0,32.83,12.21,32.83,30.37s-14.57,30.03-32.72,30.03-32.72-11.99-32.72-30.03,14.57-30.37,32.61-30.37Zm.11,44.26c7.06,0,13.11-5.27,13.11-13.9s-6.05-14.23-13.11-14.23-13.11,5.49-13.11,14.23,6.05,13.9,13.11,13.9Z"/>
      <path class="cls-1" d="M527.35,1.34h20.17l-1.79,55.36h-16.58l-1.79-55.36Zm1.23,63.31h17.71v16.81h-17.71v-16.81Z"/>
    </g>
  </g>
</svg>